# File created by Blade
# Date/Time:  Tue Jan 27 19:18:41 2015
# Frame Rate: 120.000 fps
#------------------------------------------------------
:FULLY-SPECIFIED
:DEGREES
2077
root 3.508009 32.268664 0.955686 -4.056875 0.773339 0.593173
Spine 0.944622 11.726179 -1.908334
Head 4.973980 -26.064438 -7.193132
LeftShoulder -6.422457 -5.189203 19.552583
LeftArm -3.882436 38.165236 -98.410890
LeftForeArm 4.866220 0.000000 16.039191
LeftHand 10.597575 -0.000000 -1.969306
LeftHandThumb1 -26.253704 0.000000 33.147579
RightShoulder -6.301630 -23.397712 -41.169669
RightArm 36.223371 19.832194 8.337527
RightForeArm 20.969665 0.000000 86.449011
RightHand 27.547009 -0.000000 -8.354565
RightHandThumb1 -24.326973 -0.000000 -32.862282
LeftUpLeg 10.305667 -0.009113 0.048609
LeftLeg 2.818365 -0.000000 -0.000000
LeftFoot -18.337407 12.248050 -23.834554
LeftToeBase 16.127674 -0.000000 -0.000000
RightUpLeg 9.701919 -7.481667 1.909207
RightLeg 0.387796 -0.000000 -0.000000
RightFoot -13.290301 -14.985868 13.453728
RightToeBase 10.236167 -0.000000 -0.000000
2078
root 3.515534 32.267090 0.963683 -4.080921 0.833661 0.595521
Spine 0.940509 11.653979 -1.880840
Head 4.970420 -26.028016 -7.145869
LeftShoulder -6.429708 -5.228312 19.581746
LeftArm -3.923730 38.179900 -98.493723
LeftForeArm 4.951680 -0.000000 15.897184
LeftHand 10.659577 -0.000000 -2.172603
LeftHandThumb1 -26.253704 0.000000 33.147579
RightShoulder -6.280216 -23.600677 -41.045285
RightArm 36.178645 20.462244 8.804486
RightForeArm 20.934972 -0.000000 86.457123
RightHand 27.517192 -0.000000 -8.455953
RightHandThumb1 -24.326973 -0.000000 -32.862282
LeftUpLeg 10.333290 -0.031613 0.036882
LeftLeg 2.813555 -0.000000 -0.000000
LeftFoot -18.336805 12.202791 -23.848341
LeftToeBase 16.258307 -0.000000 -0.000000
RightUpLeg 9.741243 -7.512571 1.888780
RightLeg 0.402148 -0.000000 -0.000000
RightFoot -13.318629 -15.008318 13.459967
RightToeBase 10.149445 -0.000000 -0.000000
2079
root 3.523717 32.265955 0.971388 -4.107117 0.890079 0.603164
Spine 0.937025 11.586769 -1.856783
Head 4.975524 -25.996956 -7.105877
LeftShoulder -6.430118 -5.223503 19.615463
LeftArm -3.913483 38.184787 -98.554299
LeftForeArm 5.030008 -0.000000 15.758997
LeftHand 10.575937 -0.000000 -2.125674
LeftHandThumb1 -26.253704 0.000000 33.147579
RightShoulder -6.283316 -23.789723 -40.931747
RightArm 36.173651 21.116338 9.376670
RightForeArm 20.968886 -0.000000 86.466172
RightHand 27.392465 -0.000000 -8.697866
RightHandThumb1 -24.326973 -0.000000 -32.862282
LeftUpLeg 10.354878 -0.056537 0.015926
LeftLeg 2.835892 -0.000000 -0.000000
LeftFoot -18.346508 12.185725 -23.814013
LeftToeBase 16.275654 -0.000000 -0.000000
RightUpLeg 9.784462 -7.538441 1.861576
RightLeg 0.411581 -0.000000 -0.000000
RightFoot -13.362119 -15.021242 13.488668
RightToeBase 10.115377 -0.000000 -0.000000
2080
root 3.531194 32.265261 0.979074 -4.126345 0.937863 0.616649
Spine 0.927117 11.524175 -1.833149
Head 4.978613 -25.954701 -7.082659
LeftShoulder -6.425831 -5.208272 19.634390
LeftArm -3.890871 38.189197 -98.587960
LeftForeArm 4.907641 0.000000 15.632745
LeftHand 10.638060 -0.000000 -3.153520
LeftHandThumb1 -26.253704 0.000000 33.147579
RightShoulder -6.244359 -23.747891 -40.848869
RightArm 36.117040 21.603955 10.030427
RightForeArm 21.005195 0.000000 86.471747
RightHand 27.380933 -0.000000 -8.575779
RightHandThumb1 -24.326973 -0.000000 -32.862282
LeftUpLeg 10.373350 -0.052667 -0.002543
LeftLeg 2.843117 -0.000000 -0.000000
LeftFoot -18.337692 12.202466 -23.632611
LeftToeBase 16.482111 -0.000000 -0.000000
RightUpLeg 9.818335 -7.564526 1.822789
RightLeg 0.429201 -0.000000 -0.000000
RightFoot -13.417887 -14.983334 13.579672
RightToeBase 10.177201 -0.000000 -0.000000
2081
root 3.540144 32.264478 0.987011 -4.153236 0.990758 0.617807
Spine 0.928974 11.459084 -1.792790
Head 4.969665 -25.940235 -7.049951
LeftShoulder -6.421522 -5.219437 19.667568
LeftArm -3.898777 38.185427 -98.669202
LeftForeArm 4.944667 -0.000000 15.480686
LeftHand 10.653962 -0.000000 -3.110816
LeftHandThumb1 -26.253704 0.000000 33.147579
RightShoulder -6.172419 -23.479624 -40.871949
RightArm 35.996180 21.879856 10.850039
RightForeArm 21.088021 -0.000000 86.527915
RightHand 27.339727 -0.000000 -8.554407
RightHandThumb1 -24.326973 -0.000000 -32.862282
LeftUpLeg 10.405343 -0.109578 -0.022090
LeftLeg 2.844271 -0.000000 -0.000000
LeftFoot -18.430757 12.169765 -23.780890
LeftToeBase 16.774278 -0.000000 -0.000000
RightUpLeg 9.866934 -7.603225 1.804418
RightLeg 0.426100 -0.000000 -0.000000
RightFoot -13.430422 -15.040631 13.533473
RightToeBase 10.168816 -0.000000 -0.000000
